# xmcd
# 
# Track frame offsets:
#     150
#     12432
#     27147
#     44240
#     55064
#     71391
#     85498
#     100763
#     111156
#     122184
#     141517
#     152893
# 
# Disc length: 2191
# 
# Revision: 0
# Processed by: cddbd v1.5.2PL0 Copyright (c) Steve Scherf et al.
# Submitted via: fre:ac v1.0.27
# 
DISCID=a9088d0c
DTITLE=Merle Haggard - The Epic Years: The Box Set Series- cd 1 of 4
DYEAR=2013
DGENRE=Country
TTITLE0=Man From Another Time
TTITLE1=My Mary
TTITLE2=It's All In The Game
TTITLE3=You Nearly Lose Your Mind
TTITLE4=Nobody's Darlin' But Mine
TTITLE5=Blue Yodel #2
TTITLE6=Trouble In Mind
TTITLE7=The Old Watermill
TTITLE8=Big Butter And Egg Man
TTITLE9=Pennies From Heaven
TTITLE10=Thank Heaven For Little Girls
TTITLE11=There I've Said It Again
EXTD=
EXTT0=
EXTT1=
EXTT2=
EXTT3=
EXTT4=
EXTT5=
EXTT6=
EXTT7=
EXTT8=
EXTT9=
EXTT10=
EXTT11=
PLAYORDER=
